<?xml version="1.0" encoding="UTF-8" standalone="no"?>
<!-- Created with Inkscape (http://www.inkscape.org/) -->

<svg
   xmlns:dc="http://purl.org/dc/elements/1.1/"
   xmlns:cc="http://creativecommons.org/ns#"
   xmlns:rdf="http://www.w3.org/1999/02/22-rdf-syntax-ns#"
   xmlns:svg="http://www.w3.org/2000/svg"
   xmlns="http://www.w3.org/2000/svg"
   xmlns:sodipodi="http://sodipodi.sourceforge.net/DTD/sodipodi-0.dtd"
   xmlns:inkscape="http://www.inkscape.org/namespaces/inkscape"
   id="svg4160"
   version="1.1"
   inkscape:version="0.91 r13725"
   xml:space="preserve"
   width="2512.5"
   height="537.5"
   viewBox="0 0 2512.5 537.5"
   sodipodi:docname="Epimorphics-logo-white.svg"><metadata
     id="metadata4166"><rdf:RDF><cc:Work
         rdf:about=""><dc:format>image/svg+xml</dc:format><dc:type
           rdf:resource="http://purl.org/dc/dcmitype/StillImage" /><dc:title></dc:title></cc:Work></rdf:RDF></metadata><defs
     id="defs4164" /><sodipodi:namedview
     pagecolor="#ffffff"
     bordercolor="#666666"
     borderopacity="1"
     objecttolerance="10"
     gridtolerance="10"
     guidetolerance="10"
     inkscape:pageopacity="0"
     inkscape:pageshadow="2"
     inkscape:window-width="1920"
     inkscape:window-height="1136"
     id="namedview4162"
     showgrid="false"
     inkscape:zoom="0.56557214"
     inkscape:cx="1256.25"
     inkscape:cy="268.75"
     inkscape:window-x="0"
     inkscape:window-y="27"
     inkscape:window-maximized="1"
     inkscape:current-layer="g4168" /><g
     id="g4168"
     inkscape:groupmode="layer"
     inkscape:label="ink_ext_XXXXXX"
     transform="matrix(1.25,0,0,-1.25,0,537.5)"><g
       id="g4307"><path
         d="m 501.15063,198.80868 0,204.83319 150.58523,0.13702 0,-38.26116 -109.58927,0 0,-43.73076 82.12893,0 0,-38.12004 -82.12893,0 0,-46.59572 109.31662,0 0,-38.26253 -150.31258,0"
         style="fill:#ffffff;fill-opacity:1;fill-rule:nonzero;stroke:none"
         id="path4172"
         inkscape:connector-curvature="0" /><path
         d="m 721.9802,279.56474 0,-22.13325 c 1.81681,-15.3072 11.38723,-24.28162 28.6921,-26.92462 21.8647,1.7346 34.16033,13.07662 36.89376,34.03017 -0.90703,25.50242 -13.21226,38.71468 -36.89376,39.62856 -17.30487,-2.7348 -26.87529,-10.93372 -28.6921,-24.60086 z m -38.26116,-138.14848 0,190.07267 38.26116,4.1022 0,-10.93235 c 10.19658,7.28915 20.22464,10.93235 30.0595,10.93235 20.95629,0 37.57746,-6.83152 49.8731,-20.49866 12.30386,-13.66167 18.44619,-29.60462 18.44619,-47.82748 0,-18.21738 -6.14233,-34.16033 -18.44619,-47.822 -12.29564,-13.66714 -28.91681,-20.49729 -49.8731,-20.49729 -13.66166,0.9084 -23.68287,4.59819 -30.0595,11.06936 l 0,-68.73581 -38.26116,0.13701"
         style="fill:#ffffff;fill-opacity:1;fill-rule:nonzero;stroke:none"
         id="path4174"
         inkscape:connector-curvature="0" /><path
         d="m 880.35879,198.80868 0,136.78245 -38.26116,0 0,-136.78245 38.26116,0 z M 846.18887,381.9827 c 3.6528,3.68568 8.56475,5.53126 14.766,5.53126 6.56297,0 11.65989,-1.84558 15.3031,-5.53126 3.64183,-3.68705 5.45863,-8.26742 5.45863,-13.73154 0,-5.46823 -1.8168,-10.02395 -5.45863,-13.66578 -3.64321,-3.6432 -8.65244,-5.46412 -15.02907,-5.46412 -6.37663,0 -11.38723,1.82092 -15.04003,5.46412 -3.64183,3.64183 -5.45863,8.19755 -5.45863,13.66578 0,5.46412 1.8168,10.04449 5.45863,13.73154"
         style="fill:#ffffff;fill-opacity:1;fill-rule:nonzero;stroke:none"
         id="path4176"
         inkscape:connector-curvature="0" /><path
         d="m 945.81723,286.25924 0,-87.45056 -38.25979,0 0,132.68025 38.25979,4.1022 0,-12.1641 c 8.55516,8.01806 19.49298,12.02709 32.79293,12.02709 17.30487,0 30.51714,-5.23942 39.62724,-15.71277 10.0212,10.47335 25.0502,15.71277 45.0899,15.71277 17.3103,0 30.5199,-5.23942 39.6299,-15.71277 9.1101,-10.47883 13.6699,-22.54839 13.6699,-36.21143 l 0,-84.72124 -38.2598,0 0,75.15629 c 0,9.10595 -2.0497,16.16629 -6.1492,21.181 -4.1008,5.00512 -10.7611,7.64675 -19.9506,7.92489 -7.5604,-0.54669 -14.1289,-5.5614 -19.6793,-15.03318 -0.4604,-2.82386 -0.6906,-5.6943 -0.6906,-8.60996 l 0,-80.61904 -38.257,0 0,75.15629 c 0,9.10595 -2.0511,16.16629 -6.14234,21.181 -4.1022,5.00512 -10.75286,7.64675 -19.95198,7.92489 -8.38799,-0.54669 -15.63466,-6.15193 -21.72905,-16.81162"
         style="fill:#ffffff;fill-opacity:1;fill-rule:nonzero;stroke:none"
         id="path4178"
         inkscape:connector-curvature="0" /><path
         d="m 1206.4069,230.50687 c 10.3898,0 18.7997,3.48701 25.2805,10.45417 6.4602,6.97264 9.7005,15.65111 9.7005,26.03129 0,10.38566 -3.2403,19.08742 -9.7005,26.10254 -6.4808,7.01237 -14.9401,10.51856 -25.4203,10.51856 -10.2897,0 -18.6695,-3.50619 -25.1393,-10.51856 -6.4698,-7.01512 -9.7006,-15.71688 -9.7006,-26.10254 0,-10.38018 3.2308,-19.05865 9.7006,-26.03129 6.4698,-6.96716 14.8989,-10.45417 25.2791,-10.45417 z m -49.5991,-13.04647 c -13.2999,13.34516 -19.9506,29.90331 -19.9506,49.66757 0,19.86429 6.6507,36.44162 19.9506,49.74294 13.3,13.29995 29.8691,19.95061 49.7293,19.95061 19.8697,0 36.4402,-6.65066 49.7497,-19.95061 13.2904,-13.30132 19.9397,-29.87865 19.9397,-49.74294 0,-19.85743 -6.6493,-36.43476 -19.9397,-49.73608 -13.3095,-13.29995 -29.88,-19.95061 -49.7497,-19.95061 -19.8602,0 -36.4293,6.67533 -49.7293,20.01912"
         style="fill:#ffffff;fill-opacity:1;fill-rule:nonzero;stroke:none"
         id="path4180"
         inkscape:connector-curvature="0" /><path
         d="m 1331.8569,320.42505 c 9.7403,10.01846 21.6304,15.02907 35.6607,15.02907 4.4584,0 8.7058,-0.3672 12.6929,-1.09338 l -5.9875,-37.71584 c -4.4666,4.00903 -10.8556,6.14782 -19.1354,6.42596 -9.3005,-0.63986 -17.0404,-7.38232 -23.2307,-20.22464 l 0,-84.03754 -38.2694,0 0,132.68025 38.2694,4.1022 0,-15.16608"
         style="fill:#ffffff;fill-opacity:1;fill-rule:nonzero;stroke:none"
         id="path4182"
         inkscape:connector-curvature="0" /><path
         d="m 1437.4824,279.56474 0,-22.13325 c 1.8223,-15.3072 11.3995,-24.28162 28.6907,-26.92462 21.8674,1.7346 34.1576,13.07662 36.8979,34.03017 -0.9043,25.50242 -13.2082,38.71468 -36.8979,39.62856 -17.2912,-2.7348 -26.8684,-10.93372 -28.6907,-24.60086 z m -38.2543,-138.14848 0,190.07267 38.2543,4.1022 0,-10.93235 c 10.2075,7.28915 20.2232,10.93235 30.0609,10.93235 20.9631,0 37.5829,-6.83152 49.873,-20.49866 12.3039,-13.66167 18.4558,-29.60462 18.4558,-47.82748 0,-18.21738 -6.1519,-34.16033 -18.4558,-47.822 -12.2901,-13.66714 -28.9099,-20.49729 -49.873,-20.49729 -13.6603,0.9084 -23.6761,4.59819 -30.0609,11.06936 l 0,-68.73581 -38.2543,0.13701"
         style="fill:#ffffff;fill-opacity:1;fill-rule:nonzero;stroke:none"
         id="path4184"
         inkscape:connector-curvature="0" /><path
         d="m 1595.8706,291.18215 0,-92.37347 -38.268,0 0,204.97021 38.268,0 0,-80.61904 c 9.1936,8.19207 20.1273,12.29427 32.7874,12.29427 17.3049,0 30.513,-5.23942 39.6245,-15.71277 9.0977,-10.47883 13.6603,-22.54839 13.6603,-36.21143 l 0,-84.72124 -38.2543,0 0,75.15629 c 0,9.10595 -2.2745,16.16629 -6.837,21.181 -4.5489,5.00512 -11.427,7.64675 -20.6344,7.92489 -7.9194,-0.54669 -14.7153,-4.51187 -20.3465,-11.88871"
         style="fill:#ffffff;fill-opacity:1;fill-rule:nonzero;stroke:none"
         id="path4186"
         inkscape:connector-curvature="0" /><path
         d="m 1740.5711,198.80868 0,136.78245 -38.2681,0 0,-136.78245 38.2681,0 z m -34.1576,183.17402 c 3.6445,3.68568 8.5633,5.53126 14.7564,5.53126 6.5629,0 11.6599,-1.84558 15.3044,-5.53126 3.6446,-3.68705 5.4669,-8.26742 5.4669,-13.73154 0,-5.46823 -1.8223,-10.02395 -5.4669,-13.66578 -3.6445,-3.6432 -8.6593,-5.46412 -15.0304,-5.46412 -6.3712,0 -11.3859,1.82092 -15.0304,5.46412 -3.6446,3.64183 -5.4669,8.19755 -5.4669,13.66578 0,5.46412 1.8223,10.04449 5.4669,13.73154"
         style="fill:#ffffff;fill-opacity:1;fill-rule:nonzero;stroke:none"
         id="path4188"
         inkscape:connector-curvature="0" /><path
         d="m 1781.8534,215.88885 c -13.674,11.38723 -20.4973,26.1916 -20.4973,44.40898 l 0,13.66714 c 0,18.21738 6.8233,33.02175 20.4973,44.40898 13.6603,11.38586 29.6361,17.08017 47.9549,17.08017 21.8674,0 40.0355,-7.7454 54.5315,-23.23347 l -27.3343,-20.49181 c -8.1934,8.19755 -17.3048,12.29975 -27.3342,12.29975 -9.1115,0 -17.072,-3.64869 -23.909,-10.93372 -6.8233,-7.28915 -10.2486,-15.94158 -10.2486,-25.9669 0,-10.01846 3.1787,-18.67089 9.5635,-25.96141 6.3849,-7.28503 14.5783,-10.92686 24.5941,-10.92686 10.0294,0 19.1408,4.09534 27.3342,12.29426 l 27.3343,-20.49729 c -14.5782,-15.48944 -32.8011,-23.22799 -54.6685,-23.22799 -18.2092,0 -34.1576,5.69294 -47.8179,17.08017"
         style="fill:#ffffff;fill-opacity:1;fill-rule:nonzero;stroke:none"
         id="path4190"
         inkscape:connector-curvature="0" /><path
         d="m 1983.2639,331.63006 c 7.1111,-3.09926 13.7563,-7.70019 19.9493,-13.80279 l -21.3194,-24.04733 c -6.193,7.37683 -13.9343,11.06799 -23.2239,11.06799 -9.2073,0 -15.3455,-1.71405 -18.442,-5.12706 -3.0966,-3.41713 -3.0966,-6.51365 0,-9.29092 3.0965,-2.77865 9.2347,-5.07911 18.442,-6.90003 13.5781,-1.27971 24.69,-5.15173 33.3492,-11.61605 8.6456,-6.4698 12.9753,-17.71865 12.9753,-33.74928 0,-12.94098 -5.097,-22.95944 -15.3045,-30.06362 -10.2075,-7.10417 -22.0867,-10.65969 -35.6647,-10.65969 -12.9342,0 -23.7035,1.84558 -32.3079,5.53811 -8.6182,3.68705 -16.017,8.6264 -22.21,14.82354 l 21.1824,23.91032 c 6.1793,-7.37821 15.7977,-11.65989 28.8277,-12.84643 10.4816,0 17.2364,1.71541 20.2918,5.12706 3.0417,3.4185 3.5075,6.83152 1.3701,10.25002 -2.1374,3.41302 -9.358,5.71211 -21.6619,6.89865 -11.1118,1.27423 -21.3057,4.69136 -30.5404,10.24865 -9.2348,5.55729 -13.8658,16.03475 -13.8658,31.43101 0,14.11655 5.2613,24.89133 15.784,32.31475 10.5227,7.42616 21.3468,11.1365 32.4449,11.1365 12.8519,0 22.8265,-1.54689 29.9238,-4.6434"
         style="fill:#ffffff;fill-opacity:1;fill-rule:nonzero;stroke:none"
         id="path4192"
         inkscape:connector-curvature="0" /><path
         d="m 509.86198,32.485745 c -9.5992,9.555083 -14.40428,21.527229 -14.40428,35.917946 0.0493,14.075997 4.8544,25.918117 14.43442,35.517179 9.58002,9.60002 21.45502,14.40469 35.61405,14.40469 14.307,0 26.58209,-4.45884 36.82662,-13.36859 L 568.96434,90.321684 c -6.81782,5.347245 -14.63036,8.016963 -23.45817,8.016963 -8.9936,-0.04288 -16.24986,-2.850576 -21.74686,-8.417866 -5.49837,-5.569893 -8.25236,-12.694621 -8.25236,-21.385967 0.0384,-9.311061 2.83208,-16.702829 8.34964,-22.187636 5.52714,-5.478505 12.7834,-8.217141 21.78659,-8.217141 9.00319,0 16.77737,2.650947 23.32116,7.952704 l 13.36845,-14.638028 c -10.2048,-8.90591 -22.47988,-13.362564 -36.82662,-13.362564 -14.15903,0.04275 -26.04499,4.84687 -35.64419,14.403596"
         style="fill:#ffffff;fill-opacity:1;fill-rule:nonzero;stroke:none"
         id="path4194"
         inkscape:connector-curvature="0" /><path
         d="m 646.28819,36.791958 c 8.86617,0 16.08407,3.007869 21.64958,9.02429 5.56688,6.015737 8.34963,13.475464 8.34963,22.386718 0,8.911802 -2.78275,16.372625 -8.34963,22.387951 -5.56551,6.009845 -12.83273,9.017713 -21.7866,9.017713 -8.86754,0 -16.08544,-3.007868 -21.65095,-9.017713 -5.56551,-6.015326 -8.34963,-13.476149 -8.34963,-22.387951 0,-8.911254 2.78412,-16.370981 8.34963,-22.386718 5.56551,-6.016421 12.83273,-9.02429 21.78797,-9.02429 z m -35.82094,-4.306213 c -9.58002,9.598927 -14.36455,21.504211 -14.36455,35.717221 0,14.25384 4.78453,26.171866 14.36455,35.751614 9.58002,9.57591 21.49475,14.37098 35.75243,14.37098 14.25768,0 26.17104,-4.79507 35.75243,-14.37098 9.57865,-9.579748 14.37414,-21.497774 14.37414,-35.751614 0,-14.257951 -4.79549,-26.171729 -14.37414,-35.752022 -9.58139,-9.579745 -21.49475,-14.368795 -35.75243,-14.368795 -14.25768,0 -26.17241,4.797545 -35.75243,14.403596"
         style="fill:#ffffff;fill-opacity:1;fill-rule:nonzero;stroke:none"
         id="path4196"
         inkscape:connector-curvature="0" /><path
         d="m 708.50487,18.082149 0,100.243411 6.67944,0 62.82229,-62.818859 0,62.818859 20.04925,0 0,-100.243411 -7.35491,0 -62.14818,62.151879 0,-62.151879 -20.04789,0"
         style="fill:#ffffff;fill-opacity:1;fill-rule:nonzero;stroke:none"
         id="path4198"
         inkscape:connector-curvature="0" /><path
         d="m 816.10197,18.082149 0,100.243411 6.67943,0 62.8127,-62.818859 0,62.818859 20.04926,0 0,-100.243411 -7.34395,0 -62.14955,62.151879 0,-62.151879 -20.04789,0"
         style="fill:#ffffff;fill-opacity:1;fill-rule:nonzero;stroke:none"
         id="path4200"
         inkscape:connector-curvature="0" /><path
         d="m 923.42503,18.082149 0,100.174911 73.64366,0.0685 0,-18.71693 -53.5944,0 0,-21.380624 40.16703,0 0,-18.64829 -40.16703,0 0,-22.787758 53.45739,0 0,-18.709809 -73.50665,0"
         style="fill:#ffffff;fill-opacity:1;fill-rule:nonzero;stroke:none"
         id="path4202"
         inkscape:connector-curvature="0" /><path
         d="m 1023.9673,32.485745 c -9.5896,9.555083 -14.3988,21.527229 -14.3988,35.917946 0.049,14.075997 4.8489,25.918117 14.4289,35.517179 9.58,9.60002 21.4605,14.40469 35.6305,14.40469 14.3002,0 26.5698,-4.45884 36.8198,-13.36859 l -13.3698,-14.635286 c -6.8206,5.347245 -14.6304,8.016963 -23.45,8.016963 -9.0004,-0.04288 -16.2608,-2.850576 -21.7606,-8.417866 -5.5093,-5.569893 -8.2496,-12.694621 -8.2496,-21.385967 0.04,-9.311061 2.8198,-16.702829 8.3497,-22.187636 5.5299,-5.478505 12.7902,-8.217141 21.7907,-8.217141 8.9991,0 16.7691,2.650947 23.3198,7.952704 l 13.3698,-14.638028 c -10.2103,-8.90591 -22.4909,-13.362564 -36.8198,-13.362564 -14.17,0.04275 -26.0601,4.84687 -35.6606,14.403596"
         style="fill:#ffffff;fill-opacity:1;fill-rule:nonzero;stroke:none"
         id="path4204"
         inkscape:connector-curvature="0" /><path
         d="m 1197.0872,118.32556 0,-18.71693 -33.4204,0 0,-81.526481 -20.0493,0 0,81.526481 -33.4095,0 0,18.71693 86.8792,0"
         style="fill:#ffffff;fill-opacity:1;fill-rule:nonzero;stroke:none"
         id="path4206"
         inkscape:connector-curvature="0" /><path
         d="m 1209.2472,18.082149 19.9897,0 0,100.305481 -19.9897,0 0,-100.305481 z"
         style="fill:#ffffff;fill-opacity:1;fill-rule:nonzero;stroke:none"
         id="path4208"
         inkscape:connector-curvature="0" /><path
         d="m 1246.6068,18.082149 0,100.243411 6.6808,0 62.8196,-62.818859 0,62.818859 20.0506,0 0,-100.243411 -7.3508,0 -62.1496,62.151879 0,-62.151879 -20.0506,0"
         style="fill:#ffffff;fill-opacity:1;fill-rule:nonzero;stroke:none"
         id="path4210"
         inkscape:connector-curvature="0" /><path
         d="m 1363.1865,32.485745 c -9.5992,9.555083 -14.3988,21.527229 -14.3988,35.917946 0.04,14.075997 4.849,25.918117 14.429,35.517179 9.5814,9.60002 21.4605,14.40469 35.6277,14.40469 14.2906,0 26.567,-4.45884 36.8157,-13.36859 l -13.3589,-14.635286 c -6.8096,5.347245 -14.6331,8.016963 -23.4568,8.016963 -9.0018,-0.04288 -16.2498,-2.850576 -21.7578,-8.417866 -5.4943,-5.569893 -8.2496,-12.694621 -8.2496,-21.385967 0.051,-9.311061 2.8239,-16.702829 8.3455,-22.187636 5.5217,-5.478505 12.7971,-8.217141 21.7852,-8.217141 7.2207,0 12.7698,1.425768 16.6472,4.277988 l 0,17.171691 -13.3725,-0.06262 0,18.710906 33.4177,0 0,-46.783293 c -10.2075,-8.90591 -22.484,-13.362564 -36.8157,-13.362564 -14.1672,0.04275 -26.06,4.84687 -35.6579,14.403596"
         style="fill:#ffffff;fill-opacity:1;fill-rule:nonzero;stroke:none"
         id="path4212"
         inkscape:connector-curvature="0" /><path
         d="m 1535.7762,38.065778 c 17.7707,0.03905 26.6767,10.088203 26.7315,30.137188 -0.055,20.048025 -8.9608,30.074025 -26.7315,30.074025 l -18.5791,0 0,-60.211213 18.5791,0 z m -38.6242,-19.983629 0,100.305481 38.6242,0 c 31.1844,0 46.7766,-16.72804 46.7766,-50.184664 0,-33.412097 -15.5922,-50.120817 -46.7766,-50.120817 l -38.6242,0"
         style="fill:#ffffff;fill-opacity:1;fill-rule:nonzero;stroke:none"
         id="path4214"
         inkscape:connector-curvature="0" /><path
         d="m 1635.7553,91.590708 -15.2222,-38.089892 30.0609,0 -14.8387,38.089892 z m -50.654,-73.508559 40.104,100.243411 20.0451,0 40.0218,-100.175452 -21.3194,-0.06796 -6.0012,15.370641 -45.4475,0 -6.015,-15.370641 -21.3878,0"
         style="fill:#ffffff;fill-opacity:1;fill-rule:nonzero;stroke:none"
         id="path4216"
         inkscape:connector-curvature="0" /><path
         d="m 1768.3575,118.32556 0,-18.71693 -33.4177,0 0,-81.526481 -20.0452,0 0,81.526481 -33.4177,0 0,18.71693 86.8806,0"
         style="fill:#ffffff;fill-opacity:1;fill-rule:nonzero;stroke:none"
         id="path4218"
         inkscape:connector-curvature="0" /><path
         d="m 1814.9422,91.590708 -15.2222,-38.089892 30.0609,0 -14.8387,38.089892 z m -50.6403,-73.508559 40.0903,100.243411 20.0451,0 40.0218,-100.175452 -21.3194,-0.06796 -6.0012,15.370641 -45.4475,0 -6.0149,-15.370641 -21.3742,0"
         style="fill:#ffffff;fill-opacity:1;fill-rule:nonzero;stroke:none"
         id="path4220"
         inkscape:connector-curvature="0" /><path
         d="m 381.18117,49.526862 c -8.70176,-0.162225 -15.5963,-7.343677 -15.42915,-16.015704 0.16579,-8.701485 7.33299,-15.594933 16.03475,-15.426406 8.68121,0.166472 15.6059,7.325453 15.43874,16.032282 -0.16579,8.68107 -7.36313,15.579999 -16.04434,15.409828"
         style="fill:#ffffff;fill-opacity:1;fill-rule:nonzero;stroke:none"
         id="path4222"
         inkscape:connector-curvature="0" /><path
         d="m 99.384338,135.00483 c -0.62451,-5.83913 -5.858856,-10.09725 -11.708805,-9.48178 -5.859404,0.61971 -10.107386,5.85899 -9.482328,11.7088 0.605328,5.8505 5.849401,10.09793 11.708805,9.47726 5.84995,-0.6056 10.097932,-5.85461 9.482328,-11.70428 z M 216.00531,426.01489 C 99.472712,426.01489 4.9999423,331.53826 4.9999423,214.99963 4.9999423,98.461686 99.472712,3.9841068 216.00531,3.9841068 c 45.93669,0 88.42747,14.6829542 123.07557,39.5959362 -19.26828,13.719623 -41.78653,39.125033 -52.29414,59.710837 -5.11747,-4.790145 -9.75676,-8.80904 -11.14197,-9.702234 -12.10108,-8.774788 -25.53804,-15.868551 -39.9711,-21.102896 -12.28467,-4.556812 -25.10781,-6.343886 -37.8419,-5.357933 0,-0.0027 0,-0.0092 0,-0.01288 -0.011,0 -0.011,0 -0.011,0 0,0 0,0 0,-0.0059 -10.31167,0.614919 -28.56331,2.411584 -48.78794,17.378856 -24.34533,19.945128 -28.4574,49.941058 -28.51508,51.390938 -5.19585,-0.68302 -14.37524,0.23977 -15.99693,3.3452 -0.21416,0.41926 -0.38008,0.82482 -0.52723,1.2249 -0.068,0.17538 -0.10701,0.34665 -0.16593,0.52339 -0.0486,0.15209 -0.10701,0.30692 -0.14605,0.45763 -0.01,0.0343 -0.01,0.0644 -0.0199,0.0986 -0.0578,0.23978 -0.098,0.47818 -0.12688,0.71384 -0.0192,0.12606 -0.039,0.25759 -0.0492,0.38364 -0.0289,0.23567 -0.0289,0.46037 -0.0289,0.68918 0,0.11784 0,0.23978 0.0101,0.35624 0.0188,0.23018 0.0488,0.45078 0.0777,0.66863 0.0192,0.10824 0.0492,0.21511 0.068,0.32335 0.0593,0.21922 0.11715,0.43982 0.1862,0.65493 0.0289,0.0932 0.0781,0.1836 0.11729,0.27677 0.0877,0.22059 0.17551,0.43981 0.28252,0.65081 0.0391,0.0685 0.0884,0.13565 0.12742,0.20552 0.40995,0.7207 0.95691,1.40577 1.61156,2.05384 0.0871,0.0781 0.1562,0.15757 0.24402,0.24115 0.16647,0.15482 0.35103,0.30554 0.5271,0.45763 0.13701,0.11783 0.27306,0.23429 0.42022,0.35212 0.17606,0.13153 0.35103,0.26307 0.53682,0.39597 0.17606,0.13017 0.35212,0.25759 0.53682,0.38364 0.17606,0.12331 0.35213,0.24115 0.53737,0.35761 0.21456,0.13701 0.42967,0.27403 0.65506,0.40967 0.16593,0.10413 0.34089,0.211 0.52668,0.31376 0.25416,0.15072 0.5271,0.30143 0.80112,0.44804 0.15579,0.0891 0.31212,0.17675 0.46777,0.26032 0.3324,0.17401 0.66424,0.3398 1.01637,0.51655 0.10715,0.0589 0.22484,0.11646 0.34199,0.17126 0.44913,0.22471 0.91799,0.44941 1.3959,0.66315 0.0197,0.011 0.03,0.0151 0.039,0.0206 0.52778,0.23841 1.05488,0.47818 1.5917,0.71248 l 0.17606,5.14076 c 11.49424,136.53856 101.40598,193.59941 120.40982,202.73414 1.08378,0.57135 2.1292,1.08926 3.14584,1.57292 0.2617,0.12194 0.50695,0.21922 0.76043,0.33705 0.73302,0.33158 1.45509,0.65356 2.15797,0.93718 0.34117,0.14112 0.66452,0.25895 0.99609,0.38638 0.59601,0.22881 1.19202,0.44803 1.75789,0.63985 0.35213,0.12195 0.69329,0.22334 1.04542,0.33158 0.51654,0.16578 1.04405,0.3165 1.54278,0.44803 0.35212,0.0932 0.69329,0.18086 1.03582,0.26033 0.46859,0.10687 0.93718,0.20963 1.39617,0.29184 0.33158,0.0644 0.66315,0.12194 0.98514,0.17127 0.44118,0.0685 0.86866,0.11783 1.2893,0.16167 0.31376,0.0329 0.63574,0.0671 0.93854,0.0877 0.40967,0.0247 0.80976,0.0343 1.20025,0.0384 0.29321,0 0.58642,0.01 0.86866,0.005 0.39186,-0.0151 0.77276,-0.0493 1.14407,-0.0836 0.25348,-0.0247 0.52751,-0.0343 0.77002,-0.0685 0.43022,-0.0575 0.85086,-0.14112 1.26053,-0.22881 0.33157,-0.0685 0.65493,-0.14661 0.97691,-0.2343 0.37131,-0.10276 0.75221,-0.20963 1.11392,-0.34253 0.25348,-0.0918 0.49736,-0.20415 0.74125,-0.30691 0.25484,-0.10824 0.51791,-0.21511 0.7618,-0.33158 0.25347,-0.12194 0.48777,-0.26443 0.73165,-0.40145 0.21511,-0.12194 0.44119,-0.24388 0.64534,-0.37542 0.24388,-0.15619 0.46858,-0.32198 0.70288,-0.48777 0.18497,-0.1329 0.37131,-0.26991 0.55765,-0.41652 0.22333,-0.17949 0.4494,-0.36994 0.66314,-0.56039 0.1562,-0.1466 0.3124,-0.28772 0.46859,-0.43981 0.21511,-0.20963 0.43023,-0.42474 0.63438,-0.64945 0.13701,-0.1466 0.26443,-0.29321 0.39186,-0.43981 0.20415,-0.24389 0.40967,-0.48777 0.60423,-0.74125 0.10824,-0.13701 0.20552,-0.27403 0.3028,-0.41104 0.20552,-0.28362 0.41104,-0.56587 0.59601,-0.85908 0.0589,-0.0877 0.11783,-0.18086 0.16716,-0.27403 0.40967,-0.64807 0.77002,-1.32766 1.11255,-2.02095 0.0685,-0.13702 0.13701,-0.27814 0.20552,-0.41515 0.32061,-0.68781 0.61519,-1.38659 0.87826,-2.10454 0.0288,-0.0836 0.0575,-0.17127 0.0986,-0.25347 0.24389,-0.70289 0.47681,-1.41125 0.68233,-2.1292 0.0205,-0.0685 0.0493,-0.14113 0.0685,-0.21511 0.21511,-0.77139 0.40145,-1.54278 0.57683,-2.31417 0.008,-0.0726 0.0288,-0.14113 0.0384,-0.20963 1.04542,-4.93114 1.1427,-9.67867 1.08515,-12.32441 0.008,-0.0973 -0.011,-0.24937 -0.011,-0.37542 0,-0.0192 0,-0.0397 0,-0.0589 -0.01,-0.18085 -0.0288,-0.3713 -0.0493,-0.60012 -0.8399,-31.82287 -16.45402,-73.47238 -44.82413,-112.8324 -21.29746,-29.56077 -46.10248,-52.68599 -69.80316,-66.99299 l -0.31239,-5.45316 c 0.29184,-7.95914 -0.48914,-59.331856 46.14084,-61.762896 0,0 0,0 -0.008,-0.0042 0.25348,-0.0059 0.50696,-0.01014 0.75084,-0.01014 16.20191,0 37.70625,5.459185 60.03954,21.917992 8.11534,5.97614 13.90692,13.53602 13.90692,13.53602 l -0.0301,1.2941 c -1.56196,63.86168 16.62117,97.15197 22.51003,104.41371 11.19131,13.80416 18.29,13.80416 24.02267,13.80416 8.64284,0 15.53739,-6.35334 18.04748,-10.48842 1.09337,-1.78803 1.70857,-3.95559 2.38131,-6.10397 l 0.30417,-0.99061 c 0.13701,-0.43982 0.26443,-0.88922 0.39049,-1.41125 0.0877,-0.31787 0.15619,-0.61108 0.23429,-0.86456 l 0.18634,-1.07967 c 1.20024,-6.76164 4.34471,-24.60908 -11.26118,-56.67858 -6.66984,-13.7014 -16.36632,-27.6412 -24.84338,-38.76989 -2.5101,-2.48009 -4.90236,-5.08774 -7.2453,-7.70485 6.24921,-17.61219 23.20195,-45.806105 51.26927,-64.61388 44.11029,38.674805 71.97208,95.43888 71.97208,158.71469 0,116.53863 -94.47252,211.01526 -211.02485,211.01526"
         style="fill:#ffffff;fill-opacity:1;fill-rule:nonzero;stroke:none"
         id="path4224"
         inkscape:connector-curvature="0" /><path
         d="m 326.7962,222.61761 c -2.18811,0.82071 -6.51364,4.60915 -14.0823,-12.81766 -8.79904,-20.23971 -9.83349,-35.65379 -11.7969,-50.99661 l -1.6017,-12.54775 7.21653,10.38567 c 14.87424,21.42076 22.66623,38.96952 23.40884,56.05927 0,0 0.11784,8.69628 -3.14447,9.91708"
         style="fill:#ffffff;fill-opacity:1;fill-rule:nonzero;stroke:none"
         id="path4226"
         inkscape:connector-curvature="0" /><path
         d="m 231.56188,326.75236 c -12.87109,-8.29483 -31.31866,-29.89646 -46.47378,-57.95829 -18.66267,-34.56042 -23.72123,-77.12382 -25.24483,-90.50734 0,0.005 0.011,0.005 0.011,0.008 2.30321,1.57429 4.61875,3.23353 6.92195,5.00101 0.0205,0.0192 0.0397,0.0301 0.0589,0.0479 14.52211,11.11869 29.05382,25.86962 41.73857,43.6924 39.44359,55.42901 35.34139,96.4743 35.29344,96.46882 -0.84949,8.22358 -6.50543,6.98223 -12.30523,3.24723"
         style="fill:#ffffff;fill-opacity:1;fill-rule:nonzero;stroke:none"
         id="path4228"
         inkscape:connector-curvature="0" /></g></g></svg>